<svg width="163" height="30" viewBox="0 0 163 30" fill="none" xmlns="http://www.w3.org/2000/svg">
<path d="M51.1013 22.9305C51.1013 22.9305 51.0166 21.4174 49.7732 20.6377C48.8515 20.0602 46.4808 19.5242 43.798 19.5242C42.8642 19.5242 41.8917 19.59 40.9289 19.7386C39.4484 19.9701 38.1179 20.0602 36.9229 20.0724C36.8673 20.0724 36.8116 20.0724 36.756 20.0724C33.4466 20.0724 30.2074 19.1149 27.3892 17.363C22.5606 14.3636 16.8177 9.07133 13.593 0H7.013C7.14847 0.436145 7.28878 0.869854 7.43635 1.29138L6.65497 1.56915C6.47596 1.05747 6.30662 0.528735 6.14454 0H0C0 0 2.17478 14.7485 18.1337 22.353C17.7031 22.3701 17.2676 22.3774 16.8346 22.3774C11.6117 22.3774 6.40822 21.3029 6.40822 21.3029C13.7381 27.136 22.0816 28.7174 28.9301 28.7174C35.3263 28.7174 40.4185 27.3407 42.1724 26.7632C44.3641 26.0396 46.2171 25.7716 47.5984 25.7716C48.6556 25.7716 49.437 25.9299 49.8796 26.159C50.9005 26.6901 50.69 27.8962 50.69 27.8962C50.69 27.8962 52.7415 27.56 52.935 25.4865C53.0487 24.256 51.7762 23.4008 51.1061 22.9354L51.1013 22.9305ZM9.21439 7.42421C8.5951 6.32289 8.02419 5.16552 7.51618 3.98135L8.40641 3.59393C8.89991 4.74399 9.45631 5.87212 10.0587 6.94177L9.21439 7.42421ZM12.8552 12.675C12.0351 11.7028 11.261 10.6697 10.5522 9.60494L11.3577 9.06159C12.0448 10.0947 12.7971 11.0986 13.593 12.0415L12.8527 12.675H12.8552ZM17.4176 17.1412C16.4258 16.3396 15.4702 15.4746 14.5776 14.5658L15.267 13.8787C16.1331 14.7583 17.0596 15.6013 18.0224 16.3786L17.4152 17.1412H17.4176ZM22.7372 20.6572C21.622 20.0676 20.5213 19.3975 19.4642 18.669L20.0133 17.8625C21.039 18.5691 22.1083 19.2196 23.1896 19.7922L22.7372 20.6572ZM27.065 22.4286C27.0336 22.4188 26.2885 22.2093 25.0692 21.6927L25.391 20.9228C26.5546 21.4174 27.2803 21.6221 27.2876 21.6245L27.065 22.4286Z" fill="#1C4836"/>
<path d="M36.9059 18.7274C37.2736 18.725 37.6389 18.7128 38.0017 18.6933C39.0492 18.0988 40.0822 17.4361 41.074 16.7173L41.6401 17.5116C41.1732 17.8478 40.699 18.1719 40.2176 18.4838C40.3845 18.4619 40.5515 18.4375 40.7184 18.4107C41.7005 18.2572 42.7335 18.1792 43.7907 18.1792C45.0099 18.1792 46.217 18.284 47.2935 18.4692C56.2684 12.3071 60.1051 3.31617 60.8986 0H47.0589C43.0141 10.0849 35.8173 15.1725 30.8508 17.6042C32.7402 18.3425 34.7383 18.7274 36.7535 18.7274C36.8043 18.7274 36.8575 18.7274 36.9083 18.7274H36.9059ZM52.9204 1.52529L53.8179 1.89565C53.3099 3.14073 52.7365 4.36389 52.11 5.52857L51.256 5.06318C51.8656 3.93018 52.4245 2.7387 52.9204 1.52529ZM49.94 7.3097L50.7577 7.83843C50.0392 8.96656 49.2506 10.063 48.416 11.0961L47.6637 10.4772C48.4765 9.47093 49.2433 8.40615 49.9425 7.3097H49.94ZM45.9509 12.4362L46.6549 13.1087C45.7405 14.0785 44.7631 15.0044 43.7447 15.8645L43.1206 15.114C44.11 14.2783 45.0631 13.3767 45.9509 12.4338V12.4362Z" fill="#1C4836"/>
<path d="M64.1909 23.2941H70.1927V20.8307H64.1909V17.4634H70.679V15H61.2251V29.1321H70.7056V26.6687H64.1909V23.2941Z" fill="black"/>
<path d="M77.126 14.6755L72.283 28.8076H75.4617L76.5019 25.584H81.5675L82.6053 28.8076H85.784L80.9482 14.6755H77.126ZM77.2542 23.2522L78.9815 17.904H79.0903L80.8152 23.2522H77.2542Z" fill="black"/>
<path d="M95.6226 23.4958H96.4015C96.3894 24.061 96.2636 24.5532 96.0242 24.9723C95.7701 25.4133 95.4049 25.7545 94.9283 25.9981C94.4517 26.2393 93.876 26.3612 93.2059 26.3612C92.4656 26.3612 91.8246 26.1809 91.2803 25.8202C90.736 25.4596 90.3175 24.9333 90.0199 24.2438C89.7224 23.5542 89.5748 22.7161 89.5748 21.7317C89.5748 20.7473 89.7248 19.914 90.0272 19.2293C90.3296 18.5471 90.7505 18.0257 91.29 17.6675C91.8318 17.3093 92.4608 17.129 93.1769 17.129C93.5615 17.129 93.9098 17.1778 94.2292 17.2728C94.5461 17.3702 94.8291 17.5091 95.0783 17.6894C95.3274 17.8722 95.5379 18.0915 95.7121 18.3522C95.8863 18.6129 96.0193 18.9101 96.1161 19.2464H99.1303C99.0335 18.5471 98.8182 17.9063 98.4796 17.3239C98.1409 16.7416 97.7054 16.2397 97.1757 15.8157C96.6434 15.3918 96.0338 15.0652 95.3492 14.8313C94.6646 14.5999 93.9244 14.4829 93.1285 14.4829C92.202 14.4829 91.3408 14.6462 90.5449 14.9727C89.7514 15.2992 89.0547 15.7767 88.4548 16.4005C87.8572 17.0267 87.3904 17.7893 87.0614 18.6884C86.7299 19.5875 86.5654 20.6109 86.5654 21.7561C86.5654 23.2472 86.8436 24.5337 87.3976 25.6156C87.9516 26.6998 88.7281 27.5332 89.7224 28.1204C90.719 28.7076 91.873 29 93.189 29C94.3671 29 95.4121 28.7587 96.3265 28.2787C97.241 27.7987 97.957 27.1116 98.4771 26.2223C98.9972 25.3329 99.2585 24.2657 99.2585 23.0231V21.2419H93.3873C93.3873 22.4846 94.3864 23.4909 95.6202 23.4909L95.6226 23.4958Z" fill="black"/>
<path d="M104.452 14.6755H101.487V28.8076H110.466V26.3442H104.452V14.6755Z" fill="black"/>
<path d="M115.399 22.9696H121.401V20.5062H115.399V17.1389H121.887V14.6755H112.433V28.8076H121.914V26.3442H115.399V22.9696Z" fill="black"/>
<path d="M136.641 16.9781C136.247 16.2593 135.673 15.694 134.926 15.2871C134.176 14.8802 133.271 14.6755 132.207 14.6755H126.672V28.8076H129.638V24.2269H132.132C133.211 24.2269 134.128 24.0271 134.89 23.6275C135.649 23.2279 136.232 22.6675 136.634 21.9511C137.035 21.2323 137.236 20.4063 137.236 19.4683C137.236 18.5302 137.038 17.7018 136.643 16.9805L136.641 16.9781ZM133.9 20.6963C133.716 21.052 133.436 21.3322 133.066 21.532C132.693 21.7318 132.221 21.8317 131.65 21.8317H129.635V17.1194H131.636C132.212 17.1194 132.686 17.2169 133.061 17.4118C133.436 17.6067 133.714 17.8821 133.9 18.2329C134.086 18.5838 134.178 18.9956 134.178 19.4634C134.178 19.9312 134.086 20.3381 133.9 20.6939V20.6963Z" fill="black"/>
<path d="M141.624 14.6755L136.781 28.8076H139.96L141 25.584H146.066L147.104 28.8076H150.282L145.447 14.6755H141.624ZM141.753 23.2522L143.48 17.904H143.589L145.313 23.2522H141.753Z" fill="black"/>
<path d="M159.098 14.6755L155.897 20.7621H155.759L152.561 14.6755H149.237L154.356 23.8127V28.8076H157.303V23.8127L162.419 14.6755H159.098Z" fill="black"/>
</svg>
