<svg width="441" height="103" viewBox="0 0 441 103" fill="none" xmlns="http://www.w3.org/2000/svg">
<rect width="11.0537" height="121.455" transform="matrix(1 -8.74228e-08 -0.529919 -0.848048 272.839 103)" fill="currentColor"/>
<rect width="11.0537" height="121.455" transform="matrix(1 -8.74228e-08 -0.529919 -0.848048 377.347 103)" fill="currentColor"/>
<rect width="11.0537" height="121.455" transform="matrix(1 -8.74228e-08 -0.529919 -0.848048 325.093 103)" fill="currentColor"/>
<rect width="11.0537" height="121.455" transform="matrix(1 -8.74228e-08 -0.529919 -0.848048 429.601 103)" fill="currentColor"/>
<rect width="11.0537" height="121.455" transform="matrix(1 -8.74228e-08 -0.529919 -0.848048 64.3616 103)" fill="currentColor"/>
<rect width="11.0537" height="121.455" transform="matrix(1 -8.74228e-08 -0.529919 -0.848048 168.869 103)" fill="currentColor"/>
<rect width="11.0537" height="121.455" transform="matrix(1 -8.74228e-08 -0.529919 -0.848048 116.615 103)" fill="currentColor"/>
<rect width="11.0537" height="121.455" transform="matrix(1 -8.74228e-08 -0.529919 -0.848048 221.123 103)" fill="currentColor"/>
</svg>
