<svg width="672" height="120" viewBox="0 0 672 120" fill="none" xmlns="http://www.w3.org/2000/svg">
<path d="M211.24 94.11C211.24 94.11 210.89 87.9 205.75 84.7C201.94 82.33 192.14 80.13 181.05 80.13C177.19 80.13 173.17 80.4 169.19 81.01C163.07 81.96 157.57 82.33 152.63 82.38C152.4 82.38 152.17 82.38 151.94 82.38C138.26 82.38 124.87 78.45 113.22 71.26C93.26 58.95 69.52 37.23 56.19 0H28.99C29.55 1.79 30.13 3.57 30.74 5.3L27.51 6.44C26.77 4.34 26.07 2.17 25.4 0H0C0 0 8.99 60.53 74.96 91.74C73.18 91.81 71.38 91.84 69.59 91.84C48 91.84 26.49 87.43 26.49 87.43C56.79 111.37 91.28 117.86 119.59 117.86C146.03 117.86 167.08 112.21 174.33 109.84C183.39 106.87 191.05 105.77 196.76 105.77C201.13 105.77 204.36 106.42 206.19 107.36C210.41 109.54 209.54 114.49 209.54 114.49C209.54 114.49 218.02 113.11 218.82 104.6C219.29 99.55 214.03 96.04 211.26 94.13L211.24 94.11ZM38.09 30.47C35.53 25.95 33.17 21.2 31.07 16.34L34.75 14.75C36.79 19.47 39.09 24.1 41.58 28.49L38.09 30.47ZM53.14 52.02C49.75 48.03 46.55 43.79 43.62 39.42L46.95 37.19C49.79 41.43 52.9 45.55 56.19 49.42L53.13 52.02H53.14ZM72 70.35C67.9 67.06 63.95 63.51 60.26 59.78L63.11 56.96C66.69 60.57 70.52 64.03 74.5 67.22L71.99 70.35H72ZM93.99 84.78C89.38 82.36 84.83 79.61 80.46 76.62L82.73 73.31C86.97 76.21 91.39 78.88 95.86 81.23L93.99 84.78ZM111.88 92.05C111.75 92.01 108.67 91.15 103.63 89.03L104.96 85.87C109.77 87.9 112.77 88.74 112.8 88.75L111.88 92.05Z" fill="#1C4836"/>
<path d="M152.56 76.86C154.08 76.85 155.59 76.8 157.09 76.72C161.42 74.28 165.69 71.56 169.79 68.61L172.13 71.87C170.2 73.25 168.24 74.58 166.25 75.86C166.94 75.77 167.63 75.67 168.32 75.56C172.38 74.93 176.65 74.61 181.02 74.61C186.06 74.61 191.05 75.04 195.5 75.8C232.6 50.51 248.46 13.61 251.74 0H194.53C177.81 41.39 148.06 62.27 127.53 72.25C135.34 75.28 143.6 76.86 151.93 76.86C152.14 76.86 152.36 76.86 152.57 76.86H152.56ZM218.76 6.26L222.47 7.78C220.37 12.89 218 17.91 215.41 22.69L211.88 20.78C214.4 16.13 216.71 11.24 218.76 6.26ZM206.44 30L209.82 32.17C206.85 36.8 203.59 41.3 200.14 45.54L197.03 43C200.39 38.87 203.56 34.5 206.45 30H206.44ZM189.95 51.04L192.86 53.8C189.08 57.78 185.04 61.58 180.83 65.11L178.25 62.03C182.34 58.6 186.28 54.9 189.95 51.03V51.04Z" fill="#1C4836"/>
<path d="M265.35 94.27H290.16V84.16H265.35V70.34H292.17V60.23H253.09V118.23H292.28V108.12H265.35V94.27Z" fill="black"/>
<path d="M318.82 60.23L298.8 118.23H311.94L316.24 105H337.18L341.47 118.23H354.61L334.62 60.23H318.82ZM319.35 95.43L326.49 73.48H326.94L334.07 95.43H319.35Z" fill="black"/>
<path d="M395.28 96.4299H398.5C398.45 98.7499 397.93 100.77 396.94 102.49C395.89 104.3 394.38 105.7 392.41 106.7C390.44 107.69 388.06 108.19 385.29 108.19C382.23 108.19 379.58 107.45 377.33 105.97C375.08 104.49 373.35 102.33 372.12 99.4999C370.89 96.6699 370.28 93.2299 370.28 89.1899C370.28 85.1499 370.9 81.7299 372.15 78.9199C373.4 76.1199 375.14 73.9799 377.37 72.5099C379.61 71.0399 382.21 70.2999 385.17 70.2999C386.76 70.2999 388.2 70.4999 389.52 70.8899C390.83 71.2899 392 71.8599 393.03 72.5999C394.06 73.3499 394.93 74.2499 395.65 75.3199C396.37 76.3899 396.92 77.6099 397.32 78.9899H409.78C409.38 76.1199 408.49 73.4899 407.09 71.0999C405.69 68.7099 403.89 66.6499 401.7 64.9099C399.5 63.1699 396.98 61.8299 394.15 60.8699C391.32 59.9199 388.26 59.4399 384.97 59.4399C381.14 59.4399 377.58 60.1099 374.29 61.4499C371.01 62.7899 368.13 64.7499 365.65 67.3099C363.18 69.8799 361.25 73.0099 359.89 76.6999C358.52 80.3899 357.84 84.5899 357.84 89.2899C357.84 95.4099 358.99 100.69 361.28 105.13C363.57 109.58 366.78 113 370.89 115.41C375.01 117.82 379.78 119.02 385.22 119.02C390.09 119.02 394.41 118.03 398.19 116.06C401.97 114.09 404.93 111.27 407.08 107.62C409.23 103.97 410.31 99.5899 410.31 94.4899V87.1799H386.04C386.04 92.2799 390.17 96.4099 395.27 96.4099L395.28 96.4299Z" fill="black"/>
<path d="M431.78 60.23H419.52V118.23H456.64V108.12H431.78V60.23Z" fill="black"/>
<path d="M477.03 94.27H501.84V84.16H477.03V70.34H503.85V60.23H464.77V118.23H503.96V108.12H477.03V94.27Z" fill="black"/>
<path d="M564.84 69.68C563.21 66.73 560.84 64.41 557.75 62.74C554.65 61.07 550.91 60.23 546.51 60.23H523.63V118.23H535.89V99.43H546.2C550.66 99.43 554.45 98.61 557.6 96.97C560.74 95.33 563.15 93.03 564.81 90.09C566.47 87.14 567.3 83.75 567.3 79.9C567.3 76.05 566.48 72.65 564.85 69.69L564.84 69.68ZM553.51 84.94C552.75 86.4 551.59 87.55 550.06 88.37C548.52 89.19 546.57 89.6 544.21 89.6H535.88V70.26H544.15C546.53 70.26 548.49 70.66 550.04 71.46C551.59 72.26 552.74 73.39 553.51 74.83C554.28 76.27 554.66 77.96 554.66 79.88C554.66 81.8 554.28 83.47 553.51 84.93V84.94Z" fill="black"/>
<path d="M585.44 60.23L565.42 118.23H578.56L582.86 105H603.8L608.09 118.23H621.23L601.24 60.23H585.44ZM585.97 95.43L593.11 73.48H593.56L600.69 95.43H585.97Z" fill="black"/>
<path d="M657.67 60.23L644.44 85.21H643.87L630.65 60.23H616.91L638.07 97.73V118.23H650.25V97.73L671.4 60.23H657.67Z" fill="black"/>
</svg>
